# File created by Blade
# Date/Time:  Thu Jan 22 19:34:22 2015
#---------------------------------------------------------
:version 1.10
:name HOM
:units
  mass 1.0
  length 1.000000
  angle deg
:documentation
     Acclaim Skeleton File
:root
   axis xyz
   order TX TY TZ RX RY RZ
   position 0.000000 0.000000 0.000000
   orientation 0 0 0
:bonedata
   begin
      id 1
      name RightUpLeg_dum
      direction -1.000000 0.000000 0.000000
      length 4.478084
      axis 0.0 0.0 0.0 xyz
   end
   begin
      id 2
      name LeftUpLeg_dum
      direction 1.000000 0.000000 0.000000
      length 4.478084
      axis 0.0 0.0 0.0 xyz
   end
   begin
      id 3
      name Spine_dum
      direction 0.000000 1.000000 0.000000
      length 6.068208
      axis 0.0 0.0 0.0 xyz
   end
   begin
      id 4
      name RightUpLeg
      direction 0.000000 -1.000000 0.000000
      length 16.405774
      axis 0.0 0.0 0.0 xyz
      dof rx ry rz
   end
   begin
      id 5
      name RightLeg
      direction 0.000000 -1.000000 0.000000
      length 14.644143
      axis 0.0 0.0 0.0 xyz
      dof rx ry rz
   end
   begin
      id 6
      name RightFoot
      direction 0.000000 -0.258819 0.965926
      length 5.806150
      axis 15.0 0.0 0.0 xyz
      dof rx ry rz
   end
   begin
      id 7
      name RightToeBase
      direction 0.000000 0.000000 1.000000
      length 2.952750
      axis 0.0 0.0 0.0 xyz
      dof rx ry rz
   end
   begin
      id 8
      name LeftUpLeg
      direction 0.000000 -1.000000 0.000000
      length 16.405774
      axis 0.0 0.0 0.0 xyz
      dof rx ry rz
   end
   begin
      id 9
      name LeftLeg
      direction 0.000000 -1.000000 0.000000
      length 14.644143
      axis 0.0 0.0 0.0 xyz
      dof rx ry rz
   end
   begin
      id 10
      name LeftFoot
      direction 0.000000 -0.258819 0.965926
      length 5.806150
      axis 15.0 0.0 0.0 xyz
      dof rx ry rz
   end
   begin
      id 11
      name LeftToeBase
      direction 0.000000 0.000000 1.000000
      length 2.952750
      axis 0.0 0.0 0.0 xyz
      dof rx ry rz
   end
   begin
      id 12
      name Spine
      direction 0.000000 1.000000 0.000000
      length 0.000000
      axis 0.0 0.0 0.0 xyz
      dof rx ry rz
   end
   begin
      id 13
      name Spine_dum1
      direction 0.000000 1.000000 0.000000
      length 10.013923
      axis 0.0 0.0 0.0 xyz
   end
   begin
      id 14
      name Spine_dum2
      direction 0.000000 1.000000 0.000000
      length 10.013923
      axis 0.0 0.0 0.0 xyz
   end
   begin
      id 15
      name Spine_dum3
      direction 0.000000 1.000000 0.000000
      length 15.777476
      axis 0.0 0.0 0.0 xyz
   end
   begin
      id 16
      name RightShoulder
      direction -1.000000 0.000000 0.000000
      length 7.190220
      axis 0.0 0.0 90.0 xyz
      dof rx ry rz
   end
   begin
      id 17
      name RightArm
      direction -1.000000 0.000000 0.000000
      length 10.177469
      axis 0.0 0.0 90.0 xyz
      dof rx ry rz
   end
   begin
      id 18
      name RightForeArm
      direction -1.000000 0.000000 0.000000
      length 8.392114
      axis 0.0 0.0 90.0 xyz
      dof ry rz rx
   end
   begin
      id 19
      name RightHand
      direction -1.000000 0.000000 0.000000
      length 0.000000
      axis 0.0 0.0 90.0 xyz
      dof rx ry rz
   end
   begin
      id 20
      name RightHand_dum1
      direction -1.000000 0.000000 0.000000
      length 3.937000
      axis 0.0 0.0 90.0 xyz
   end
   begin
      id 21
      name RightHand_dum2
      direction 0.000000 0.000000 0.000000
      length 0.000000
      axis 0.0 0.0 90.0 xyz
   end
   begin
      id 22
      name RightHandThumb1
      direction 0.000000 0.000000 1.000000
      length 3.937000
      axis 0.0 0.0 90.0 xyz
      dof rx rz ry
   end
   begin
      id 23
      name LeftShoulder
      direction 1.000000 0.000000 0.000000
      length 7.190220
      axis 0.0 0.0 -90.0 xyz
      dof rx ry rz
   end
   begin
      id 24
      name LeftArm
      direction 1.000000 0.000000 0.000000
      length 10.177469
      axis 0.0 0.0 -90.0 xyz
      dof rx ry rz
   end
   begin
      id 25
      name LeftForeArm
      direction 1.000000 0.000000 0.000000
      length 8.392114
      axis 0.0 0.0 -90.0 xyz
      dof ry rz rx
   end
   begin
      id 26
      name LeftHand
      direction 1.000000 0.000000 0.000000
      length 0.000000
      axis 0.0 0.0 -90.0 xyz
      dof rx ry rz
   end
   begin
      id 27
      name LeftHand_dum1
      direction 1.000000 0.000000 0.000000
      length 3.937000
      axis 0.0 0.0 -90.0 xyz
   end
   begin
      id 28
      name LeftHand_dum2
      direction 0.000000 0.000000 0.000000
      length 0.000000
      axis 0.0 0.0 -90.0 xyz
   end
   begin
      id 29
      name LeftHandThumb1
      direction 0.000000 0.000000 1.000000
      length 3.937000
      axis 0.0 0.0 -90.0 xyz
      dof rx rz ry
   end
   begin
      id 30
      name Head
      direction 0.000000 1.000000 0.000000
      length 4.527550
      axis 0.0 0.0 0.0 xyz
      dof rx ry rz
   end
:hierarchy
   begin
      root RightUpLeg_dum LeftUpLeg_dum Spine_dum
      RightUpLeg_dum RightUpLeg
      LeftUpLeg_dum LeftUpLeg
      Spine_dum Spine
      RightUpLeg RightLeg
      RightLeg RightFoot
      RightFoot RightToeBase
      LeftUpLeg LeftLeg
      LeftLeg LeftFoot
      LeftFoot LeftToeBase
      Spine Spine_dum1 Spine_dum2 Spine_dum3
      Spine_dum1 RightShoulder
      Spine_dum2 LeftShoulder
      Spine_dum3 Head
      RightShoulder RightArm
      RightArm RightForeArm
      RightForeArm RightHand
      RightHand RightHand_dum1 RightHand_dum2
      RightHand_dum2 RightHandThumb1
      LeftShoulder LeftArm
      LeftArm LeftForeArm
      LeftForeArm LeftHand
      LeftHand LeftHand_dum1 LeftHand_dum2
      LeftHand_dum2 LeftHandThumb1
   end

# File created by Blade
# Date/Time:  Thu Jan 22 19:34:15 2015
# Frame Rate: 120.000 fps
#------------------------------------------------------
:FULLY-SPECIFIED
:DEGREES
207
root -3.211676 33.012710 -1.662989 9.174473 -2.424404 2.588809
RightUpLeg -2.691780 -3.774925 -3.578862
RightLeg -0.829373 -0.000000 0.000000
RightFoot -12.114876 -3.345540 4.808560
RightToeBase 7.395896 -0.000000 -0.000000
LeftUpLeg -2.415147 2.532273 1.955220
LeftLeg 1.519589 -0.000000 -0.000000
LeftFoot -12.347389 3.578697 -18.282964
LeftToeBase 8.834282 -0.000000 -0.000000
Spine -10.376031 -2.183009 -1.161434
RightShoulder -20.138443 -13.354799 -24.094013
RightArm 20.732173 25.834857 41.680535
RightForeArm -12.425198 0.000000 14.512342
RightHand 9.271800 -0.000000 8.008874
RightHandThumb1 -24.326973 -0.000000 -32.862282
LeftShoulder -24.431833 7.010089 29.469946
LeftArm 16.176798 -25.579779 -37.936247
LeftForeArm 20.760544 0.000000 2.805323
LeftHand 1.067902 -0.000000 -10.686552
LeftHandThumb1 -26.253704 0.000000 33.147579
Head 8.935007 5.884289 1.525129
208
root -3.208966 33.012507 -1.667718 9.182003 -2.440874 2.588300
RightUpLeg -2.720069 -3.756970 -3.590049
RightLeg -0.809892 -0.000000 0.000000
RightFoot -12.132260 -3.312003 4.862969
RightToeBase 7.427613 -0.000000 -0.000000
LeftUpLeg -2.461557 2.511359 1.949774
LeftLeg 1.590677 -0.000000 -0.000000
LeftFoot -12.398936 3.602157 -18.263372
LeftToeBase 8.851309 -0.000000 -0.000000
Spine -10.355567 -2.165747 -1.170014
RightShoulder -20.129245 -13.378414 -24.074115
RightArm 20.722879 25.784221 41.671956
RightForeArm -12.484544 0.000000 14.548780
RightHand 9.231323 -0.000000 7.848378
RightHandThumb1 -24.326973 -0.000000 -32.862282
LeftShoulder -24.422387 7.005370 29.472336
LeftArm 16.190469 -25.545631 -37.950220
LeftForeArm 20.723254 0.000000 2.829214
LeftHand 0.995712 -0.000000 -10.646963
LeftHandThumb1 -26.253704 0.000000 33.147579
Head 8.816244 5.723169 1.481092
209
root -3.205014 33.012196 -1.671899 9.178608 -2.444684 2.600151
RightUpLeg -2.731002 -3.748603 -3.614871
RightLeg -0.793697 -0.000000 0.000000
RightFoot -12.140467 -3.303035 4.835123
RightToeBase 7.433780 -0.000000 -0.000000
LeftUpLeg -2.500855 2.496286 1.929487
LeftLeg 1.660005 -0.000000 -0.000000
LeftFoot -12.425440 3.601461 -18.288846
LeftToeBase 8.808439 -0.000000 -0.000000
Spine -10.316040 -2.173581 -1.184916
RightShoulder -20.134071 -13.404268 -24.057661
RightArm 20.750748 25.722182 41.680288
RightForeArm -12.476521 -0.000000 14.579698
RightHand 9.208946 -0.000000 7.834002
RightHandThumb1 -24.326973 -0.000000 -32.862282
LeftShoulder -24.425683 6.987183 29.472956
LeftArm 16.189359 -25.504597 -37.951791
LeftForeArm 20.683287 0.000000 2.838383
LeftHand 0.997104 -0.000000 -10.557640
LeftHandThumb1 -26.253704 0.000000 33.147579
Head 8.665439 5.633105 1.451551
210
root -3.200199 33.012248 -1.676231 9.183478 -2.451912 2.613422
RightUpLeg -2.747328 -3.739588 -3.642211
RightLeg -0.789458 -0.000000 0.000000
RightFoot -12.145801 -3.277781 4.859471
RightToeBase 7.426803 -0.000000 -0.000000
LeftUpLeg -2.551413 2.466837 1.904632
LeftLeg 1.748016 -0.000000 -0.000000
LeftFoot -12.464450 3.593220 -18.368891
LeftToeBase 8.741700 -0.000000 -0.000000
Spine -10.291120 -2.170983 -1.200175
RightShoulder -20.125794 -13.405640 -24.037856
RightArm 20.743223 25.651254 41.653795
RightForeArm -12.524122 -0.000000 14.589124
RightHand 9.354311 -0.000000 7.824696
RightHandThumb1 -24.326973 -0.000000 -32.862282
LeftShoulder -24.412118 6.971099 29.463798
LeftArm 16.184941 -25.493676 -37.955210
LeftForeArm 20.707957 -0.000000 2.868351
LeftHand 1.056752 -0.000000 -10.566420
LeftHandThumb1 -26.253704 0.000000 33.147579
Head 8.529722 5.547398 1.428508
211
root -3.195175 33.011869 -1.679998 9.187512 -2.455295 2.623664
RightUpLeg -2.762461 -3.726235 -3.668284
RightLeg -0.779915 -0.000000 0.000000
RightFoot -12.156089 -3.252118 4.915872
RightToeBase 7.451601 -0.000000 -0.000000
LeftUpLeg -2.605940 2.420603 1.885410
LeftLeg 1.840515 -0.000000 -0.000000
LeftFoot -12.518131 3.623930 -18.369330
LeftToeBase 8.727988 -0.000000 -0.000000
Spine -10.267039 -2.178089 -1.208494
RightShoulder -20.116331 -13.424853 -24.029575
RightArm 20.746591 25.626691 41.663524
RightForeArm -12.458296 -0.000000 14.645751
RightHand 9.344698 -0.000000 7.866989
RightHandThumb1 -24.326973 -0.000000 -32.862282
LeftShoulder -24.401443 6.977146 29.452185
LeftArm 16.184404 -25.505874 -37.974963
LeftForeArm 20.747061 -0.000000 2.906425
LeftHand 1.087985 -0.000000 -10.561802
LeftHandThumb1 -26.253704 0.000000 33.147579
Head 8.390585 5.452204 1.406417
212
root -3.189277 33.011706 -1.684152 9.194860 -2.459440 2.635456
RightUpLeg -2.780606 -3.710008 -3.696295
RightLeg -0.773589 -0.000000 0.000000
RightFoot -12.156957 -3.247199 4.920743
RightToeBase 7.404432 -0.000000 -0.000000
LeftUpLeg -2.667125 2.354672 1.861738
LeftLeg 1.938488 -0.000000 -0.000000
LeftFoot -12.582725 3.690002 -18.317991
LeftToeBase 8.725850 -0.000000 -0.000000
Spine -10.245694 -2.191027 -1.218465
RightShoulder -20.099765 -13.445488 -24.019502
RightArm 20.751887 25.585848 41.680352
RightForeArm -12.463308 -0.000000 14.692186
RightHand 9.391486 -0.000000 7.790040
RightHandThumb1 -24.326973 -0.000000 -32.862282
LeftShoulder -24.411326 6.981946 29.440603
LeftArm 16.201866 -25.450807 -37.990729
LeftForeArm 20.754715 -0.000000 2.950703
LeftHand 1.076788 -0.000000 -10.594659
LeftHandThumb1 -26.253704 0.000000 33.147579
Head 8.261990 5.375919 1.386936
213
root -3.183462 33.011319 -1.687767 9.200821 -2.464529 2.637911
RightUpLeg -2.794822 -3.692504 -3.715722
RightLeg -0.770302 -0.000000 0.000000
RightFoot -12.161765 -3.232226 4.952177
RightToeBase 7.443752 -0.000000 -0.000000
LeftUpLeg -2.727306 2.294218 1.850398
LeftLeg 2.039698 -0.000000 -0.000000
LeftFoot -12.653452 3.726590 -18.321364
LeftToeBase 8.723710 -0.000000 -0.000000
Spine -10.223916 -2.183440 -1.217820
RightShoulder -20.103370 -13.460714 -24.009099
RightArm 20.754619 25.541559 41.692606
RightForeArm -12.476784 -0.000000 14.743426
RightHand 9.373130 -0.000000 7.733672
RightHandThumb1 -24.326973 -0.000000 -32.862282
LeftShoulder -24.391344 6.958457 29.440139
LeftArm 16.202374 -25.480820 -38.029813
LeftForeArm 20.823491 0.000000 2.981593
LeftHand 1.023001 -0.000000 -10.558406
LeftHandThumb1 -26.253704 0.000000 33.147579
Head 8.132308 5.281988 1.353879
214
root -3.176084 33.010983 -1.692393 9.214125 -2.465975 2.653636
RightUpLeg -2.820473 -3.679761 -3.750152
RightLeg -0.760960 -0.000000 0.000000
RightFoot -12.167397 -3.212741 4.968458
RightToeBase 7.431341 -0.000000 -0.000000
LeftUpLeg -2.812972 2.213328 1.822933
LeftLeg 2.173061 -0.000000 -0.000000
LeftFoot -12.729326 3.775049 -18.330983
LeftToeBase 8.726381 -0.000000 -0.000000
Spine -10.208906 -2.190906 -1.228361
RightShoulder -20.093066 -13.477016 -24.003351
RightArm 20.757076 25.536079 41.732957
RightForeArm -12.515689 0.000000 14.803360
RightHand 9.356570 -0.000000 7.737564
RightHandThumb1 -24.326973 -0.000000 -32.862282
LeftShoulder -24.392930 6.958930 29.418103
LeftArm 16.224751 -25.439963 -38.043846
LeftForeArm 20.790834 -0.000000 3.017627
LeftHand 1.014798 -0.000000 -10.521327
LeftHandThumb1 -26.253704 0.000000 33.147579
Head 8.008451 5.210627 1.331986
215
root -3.167569 33.010464 -1.694901 9.206099 -2.473493 2.668224
RightUpLeg -2.811161 -3.657633 -3.787533
RightLeg -0.775348 -0.000000 0.000000
RightFoot -12.175836 -3.197414 5.015862
RightToeBase 7.471141 -0.000000 -0.000000
LeftUpLeg -2.876428 2.133683 1.793660
LeftLeg 2.315494 -0.000000 -0.000000
LeftFoot -12.819950 3.834848 -18.313178
LeftToeBase 8.714924 -0.000000 -0.000000
Spine -10.172230 -2.191861 -1.234963
RightShoulder -20.076074 -13.485032 -24.003105
RightArm 20.741290 25.502840 41.758051
RightForeArm -12.461557 -0.000000 14.878124
RightHand 9.380470 0.000000 7.759343
RightHandThumb1 -24.326973 -0.000000 -32.862282
LeftShoulder -24.392389 6.951807 29.383113
LeftArm 16.214201 -25.340021 -38.019161
LeftForeArm 20.670046 -0.000000 3.082134
LeftHand 1.026756 0.000000 -10.503013
LeftHandThumb1 -26.253704 0.000000 33.147579
Head 7.882861 5.142165 1.292720
216
root -3.157886 33.010038 -1.698433 9.206280 -2.483673 2.692991
RightUpLeg -2.822829 -3.633115 -3.836674
RightLeg -0.766408 -0.000000 0.000000
RightFoot -12.201810 -3.187495 5.026659
RightToeBase 7.481411 -0.000000 -0.000000
LeftUpLeg -2.951318 2.053860 1.750700
LeftLeg 2.457685 -0.000000 -0.000000
LeftFoot -12.907008 3.897844 -18.298745
LeftToeBase 8.745210 -0.000000 -0.000000
Spine -10.141162 -2.187424 -1.259982
RightShoulder -20.075377 -13.503874 -23.990479
RightArm 20.746347 25.485432 41.799660
RightForeArm -12.618486 0.000000 14.931004
RightHand 9.447157 -0.000000 7.592601
RightHandThumb1 -24.326973 -0.000000 -32.862282
LeftShoulder -24.385353 6.939202 29.369840
LeftArm 16.212396 -25.328356 -38.039946
LeftForeArm 20.688282 -0.000000 3.135409
LeftHand 1.054090 -0.000000 -10.501561
LeftHandThumb1 -26.253704 0.000000 33.147579
Head 7.744413 5.003527 1.232124
217
root -3.147394 33.009859 -1.701866 9.210875 -2.497436 2.708561
RightUpLeg -2.833329 -3.615790 -3.877080
RightLeg -0.771338 -0.000000 0.000000
RightFoot -12.205782 -3.172312 5.064478
RightToeBase 7.480311 -0.000000 -0.000000
LeftUpLeg -3.049078 1.999056 1.713132
LeftLeg 2.639452 -0.000000 -0.000000
LeftFoot -13.007067 3.951109 -18.263481
LeftToeBase 8.717666 -0.000000 -0.000000
Spine -10.111857 -2.217026 -1.261935
RightShoulder -20.046120 -13.506511 -23.976726
RightArm 20.764511 25.455126 41.812438
RightForeArm -12.598496 0.000000 14.976747
RightHand 9.500788 -0.000000 7.743947
RightHandThumb1 -24.326973 -0.000000 -32.862282
LeftShoulder -24.428469 6.930323 29.347992
LeftArm 16.202484 -25.210947 -38.036981
LeftForeArm 20.616558 -0.000000 3.199282
LeftHand 1.030423 -0.000000 -10.445336
LeftHandThumb1 -26.253704 0.000000 33.147579
Head 7.602731 4.946672 1.178079
218
root -3.135412 33.009122 -1.704365 9.202942 -2.521134 2.734849
RightUpLeg -2.834585 -3.570518 -3.932633
RightLeg -0.770802 -0.000000 0.000000
RightFoot -12.218870 -3.189583 5.066154
RightToeBase 7.471762 -0.000000 -0.000000
LeftUpLeg -3.142543 1.997122 1.656200
LeftLeg 2.840695 -0.000000 -0.000000
LeftFoot -13.106061 3.970923 -18.213149
LeftToeBase 8.721673 -0.000000 -0.000000
Spine -10.075285 -2.201699 -1.284988
RightShoulder -20.016588 -13.488498 -23.981259
RightArm 20.716763 25.454232 41.824882
RightForeArm -12.704403 -0.000000 15.054089
RightHand 9.431400 -0.000000 7.875659
RightHandThumb1 -24.326973 -0.000000 -32.862282
LeftShoulder -24.427543 6.916156 29.334114
LeftArm 16.229218 -25.236157 -38.087700
LeftForeArm 20.647618 0.000000 3.226087
LeftHand 1.029151 -0.000000 -10.419529
LeftHandThumb1 -26.253704 0.000000 33.147579
Head 7.470242 4.850408 1.138161
219
root -3.124088 33.008675 -1.707502 9.209472 -2.548423 2.745448
RightUpLeg -2.851134 -3.533585 -3.972853
RightLeg -0.772561 -0.000000 0.000000
RightFoot -12.220711 -3.175150 5.111638
RightToeBase 7.461027 -0.000000 -0.000000
LeftUpLeg -3.264153 2.019415 1.613785
LeftLeg 3.071595 -0.000000 -0.000000
LeftFoot -13.218877 3.970325 -18.140181
LeftToeBase 8.774579 -0.000000 -0.000000
Spine -10.056373 -2.182630 -1.291273
RightShoulder -19.978159 -13.442839 -23.999054
RightArm 20.646558 25.337201 41.814402
RightForeArm -12.769804 -0.000000 15.091140
RightHand 9.630017 -0.000000 7.761986
RightHandThumb1 -24.326973 -0.000000 -32.862282
LeftShoulder -24.421279 6.876417 29.329673
LeftArm 16.221457 -25.219371 -38.118265
LeftForeArm 20.652541 -0.000000 3.271463
LeftHand 1.013315 -0.000000 -10.414780
LeftHandThumb1 -26.253704 0.000000 33.147579
Head 7.355031 4.767718 1.104850
